<svg width="120" height="88" viewBox="0 0 120 88" fill="none" xmlns="http://www.w3.org/2000/svg">
<path d="M24 57H30V63H24V57Z" fill="#A6ADBB"/>
<path fill-rule="evenodd" clip-rule="evenodd" d="M33.6908 47.3864C33.6908 48.1042 33.0924 48.6946 32.3648 48.6946H27.3068C27.1921 50.0153 26.7243 51.2823 25.9511 52.3664C25.178 53.4504 24.1273 54.3128 22.906 54.8654H32.3765C36.5778 54.8654 39.9811 51.508 39.9811 47.3632V37.2677H33.6908V47.3864ZM81.853 31.0391H88.1431V37.2446L88.8238 31.0391L112.353 24V30.4834L106.932 32.1042C104.925 30.958 102.625 30.4023 100.301 30.5181L88.8355 31.0391H100.313C106.979 31.0391 112.389 36.3763 112.389 42.9522C112.389 49.5282 106.979 54.8654 100.313 54.8654H84.2235C85.3311 54.2341 86.2599 53.338 86.9244 52.2596C87.5888 51.1813 87.9676 49.9553 88.0258 48.6946H100.313C103.517 48.6946 106.098 46.136 106.098 42.987C106.098 39.8263 103.505 37.2793 100.313 37.2793H88.1431V47.3632C88.1431 51.508 84.7399 54.8654 80.5386 54.8654H69.2961V48.6946H80.5621C81.2897 48.6831 81.8647 48.081 81.853 47.3632V31.0391ZM69.2961 48.6946V31.0391H75.5745V47.9768L69.2961 48.6946ZM19.4924 35H13.6247L13.6247 29H19.4924L19.4924 35ZM16.7091 48.784C17.3478 42.0706 16.3897 36.6193 8.63782 37.5C8.59343 37.5105 8.52382 37.5264 8.43672 37.5464C7.94855 37.6584 6.9108 37.8966 6.68192 38C5.08486 38.6409 3.41046 40.6085 2.77006 42.5C1.90749 45.0478 1.79856 49 2.2986 50.5C3.74663 53.8788 6.54605 54.3406 9.21357 54.7807L9.5 54.8281C8.72497 58.4189 5.5 61 2.77006 63H9.5C14.8602 62.5338 15.7839 56.4173 15.9698 55.1867C15.9833 55.0974 15.9929 55.0338 16 55L16.0186 54.8464C16.1137 54.0628 16.5449 50.5098 16.7091 48.784ZM16.7091 48.784L16.4614 55L19.7961 54.877C23.9974 54.877 27.4007 51.5195 27.4007 47.3748V37.2793H21.1222V47.3748C21.134 48.0926 20.8868 48.8519 20.1474 48.8635H18.6679L16.7091 48.784ZM13.5276 54.8281C13.5276 54.8281 14.1853 54.8893 16 55L13.5276 54.8281ZM38.0735 63H32.2058L32.2058 57H38.0735V63ZM60.4828 37.2677H66.7613L66.8317 47.3864C66.8317 48.9725 66.3271 50.5123 65.3883 51.7858C62.9238 55.1433 58.1593 55.8958 54.756 53.4645C53.4539 54.3957 51.887 54.897 50.2789 54.897C48.6708 54.897 47.1038 54.3957 45.8018 53.4645C44.5759 54.3421 43.1122 54.8384 41.5984 54.89C40.0847 54.9416 38.5898 54.546 37.3054 53.754C39.1478 52.2258 40.1571 49.9334 40.0163 47.5601C40.0696 47.8539 40.2233 48.121 40.4517 48.3168C40.6801 48.5127 40.9695 48.6256 41.272 48.6368C41.9996 48.6599 42.6215 48.0926 42.645 47.3748V37.2793H48.9235V47.3748C49.0056 47.9653 49.475 48.4399 50.0735 48.5094C50.8011 48.602 51.4583 48.0926 51.5522 47.3748V37.2793H57.8541V47.3632C57.9363 47.9537 58.4057 48.4284 59.0042 48.4978C59.7318 48.5904 60.389 48.081 60.4828 47.3632V37.2677ZM12 45.2533C12 49.0488 12 49.591 9 48.5066C7 47.7837 6 47.0501 6 45.2533C6 43.4566 7.34315 42 9 42C10.6569 42 12 43.4566 12 45.2533Z" fill="#A6ADBB"/>
</svg>
